<?xml version="1.0" encoding="utf-8"?>
<!-- Generator: Adobe Illustrator 27.5.0, SVG Export Plug-In . SVG Version: 6.00 Build 0)  -->
<svg version="1.1" xmlns="http://www.w3.org/2000/svg" xmlns:xlink="http://www.w3.org/1999/xlink" x="0px" y="0px"
	 viewBox="0 0 500 500" style="enable-background:new 0 0 500 500;" xml:space="preserve">
<g id="BACKGROUND">
</g>
<g id="OBJECTS">
	<g>
		<path style="fill:#404042;" d="M237.918,289.058h-10.778c-4.234,0-7.699-3.464-7.699-7.699v0c0-4.234,3.464-7.699,7.699-7.699
			h10.778c4.234,0,7.699,3.464,7.699,7.699v0C245.616,285.593,242.152,289.058,237.918,289.058z"/>
		<path style="fill:#404042;" d="M105.595,289.058H94.817c-4.234,0-7.699-3.464-7.699-7.699v0c0-4.234,3.464-7.699,7.699-7.699
			h10.778c4.234,0,7.699,3.464,7.699,7.699v0C113.294,285.593,109.829,289.058,105.595,289.058z"/>
		<g>
			<defs>
				<path id="SVGID_1_" d="M73.934,218.742c0,0-3.593-34.644,6.416-37.981c10.008-3.336,161.674-3.593,171.939,1.283
					c0,0,10.778,7.442,6.416,37.467L73.934,218.742z"/>
			</defs>
			<use xlink:href="#SVGID_1_"  style="overflow:visible;fill:#EECA06;"/>
			<clipPath id="SVGID_00000070094838269898607070000006541511728877641373_">
				<use xlink:href="#SVGID_1_"  style="overflow:visible;"/>
			</clipPath>
			
				<rect x="58.986" y="157.409" style="clip-path:url(#SVGID_00000070094838269898607070000006541511728877641373_);fill:#DAA109;" width="110.349" height="80.837"/>
		</g>
		<g>
			<defs>
				<path id="SVGID_00000168096051540873446610000001498999226199901069_" d="M75.474,224.131c0,0,2.515,44.912,2.823,50.299
					c0.513,8.982,10.008,7.699,78.014,7.185c68.006-0.513,96.234,8.469,96.491-10.522c0.257-18.99,1.283-47.219,1.283-47.219
					L75.474,224.131z"/>
			</defs>
			<use xlink:href="#SVGID_00000168096051540873446610000001498999226199901069_"  style="overflow:visible;fill:#4E8484;"/>
			<clipPath id="SVGID_00000131330466214205030370000013458280209038519464_">
				<use xlink:href="#SVGID_00000168096051540873446610000001498999226199901069_"  style="overflow:visible;"/>
			</clipPath>
			
				<rect x="57.959" y="167.674" style="opacity:0.15;clip-path:url(#SVGID_00000131330466214205030370000013458280209038519464_);" width="112.145" height="118.817"/>
		</g>
		<path style="fill:#C4C9DD;" d="M109.348,222.335c0,0-5.133,32.591,12.318,32.591s12.575-32.335,12.575-32.335L109.348,222.335z"/>
		<path style="fill:#C4C9DD;" d="M197.563,222.335c0,0-5.133,32.591,12.318,32.591s12.575-32.335,12.575-32.335L197.563,222.335z"/>
		<path style="fill:#C4C9DD;" d="M257.293,228.751H72.009c-3.176,0-5.774-2.598-5.774-5.774v0c0-3.176,2.598-5.774,5.774-5.774
			h185.283c3.176,0,5.774,2.598,5.774,5.774v0C263.067,226.152,260.468,228.751,257.293,228.751z"/>
		<g>
			<defs>
				<path id="SVGID_00000074440464708555313150000001403125272937088666_" d="M141.518,177.426h5.089
					c0.709,0,1.283-0.574,1.283-1.283v-8.982c0-0.709,0.574-1.283,1.283-1.283h33.361c0.709,0,1.283,0.574,1.283,1.283v8.212
					c0,0.709,0.574,1.283,1.283,1.283h5.389c0.709,0,1.283-0.574,1.283-1.283v-15.141c0-0.709-0.574-1.283-1.283-1.283h-48.536
					c-0.695,0-1.264,0.55-1.283,1.245c-0.089,3.339-0.335,12.471-0.436,15.916C140.215,176.832,140.795,177.426,141.518,177.426z"/>
			</defs>
			<use xlink:href="#SVGID_00000074440464708555313150000001403125272937088666_"  style="overflow:visible;fill:#DBDBDB;"/>
			<clipPath id="SVGID_00000174600962132145963410000007242185288530160804_">
				<use xlink:href="#SVGID_00000074440464708555313150000001403125272937088666_"  style="overflow:visible;"/>
			</clipPath>
			<polyline style="clip-path:url(#SVGID_00000174600962132145963410000007242185288530160804_);fill:#C4C9DD;" points="
				143.159,178.965 143.929,162.541 187.042,163.824 187.042,187.434 143.159,178.965 			"/>
			
				<rect x="116.47" y="143.038" style="opacity:0.15;clip-path:url(#SVGID_00000174600962132145963410000007242185288530160804_);fill:#929294;" width="53.378" height="74.421"/>
		</g>
		<path style="fill:#C4C9DD;" d="M197.21,178.709h-15.141c-1.905,0-3.464-1.559-3.464-3.464l0,0c0-1.905,1.559-3.464,3.464-3.464
			h15.141c1.905,0,3.464,1.559,3.464,3.464l0,0C200.675,177.15,199.116,178.709,197.21,178.709z"/>
		<path style="fill:#C4C9DD;" d="M152.975,178.709h-15.141c-1.905,0-3.464-1.559-3.464-3.464l0,0c0-1.905,1.559-3.464,3.464-3.464
			h15.141c1.905,0,3.464,1.559,3.464,3.464l0,0C156.439,177.15,154.88,178.709,152.975,178.709z"/>
		<ellipse style="fill:#929294;" cx="209.047" cy="237.989" rx="3.721" ry="3.849"/>
		<ellipse style="fill:#929294;" cx="120.832" cy="237.989" rx="3.721" ry="3.849"/>
		<path style="fill:#404042;" d="M126.863,178.58v25.021h6.544V178.58C133.407,178.58,125.708,178.58,126.863,178.58z"/>
		<path style="fill:#404042;" d="M144.506,178.58v25.021h6.544V178.58C151.05,178.58,143.351,178.58,144.506,178.58z"/>
		<path style="fill:#404042;" d="M162.149,178.58v25.021h6.544V178.58C168.693,178.58,160.994,178.58,162.149,178.58z"/>
		<path style="fill:#404042;" d="M179.792,178.58v25.021h6.544V178.58C186.336,178.58,178.637,178.58,179.792,178.58z"/>
		<path style="fill:#404042;" d="M197.435,178.58v25.021h6.544V178.58C203.979,178.58,196.28,178.58,197.435,178.58z"/>
	</g>
	<g>
		<g>
			<defs>
				<path id="SVGID_00000163059838720996110360000007137432648392174993_" d="M386.3,72.293l-16.863,20.512l11.402,8.809
					l12.56,4.666l-9.742,13.914l13.426,10.8l9.695-12.502c0,0,10.551-2.751,15.737,4.321s0.358,14.426,0.358,14.426l1.761,1.416
					c0,0,24.652-13.521-7.056-33.59c0,0-3.813-9.23-13.646-10.977l-6.143-12.192L386.3,72.293z"/>
			</defs>
			<use xlink:href="#SVGID_00000163059838720996110360000007137432648392174993_"  style="overflow:visible;fill:#C4C9DD;"/>
			<clipPath id="SVGID_00000111152983128167924150000002339535596612313006_">
				<use xlink:href="#SVGID_00000163059838720996110360000007137432648392174993_"  style="overflow:visible;"/>
			</clipPath>
			
				<ellipse transform="matrix(0.5741 -0.8188 0.8188 0.5741 99.3119 341.3538)" style="clip-path:url(#SVGID_00000111152983128167924150000002339535596612313006_);fill:#929294;" cx="377.774" cy="75.216" rx="21.813" ry="11.42"/>
			
				<polygon style="opacity:0.15;clip-path:url(#SVGID_00000111152983128167924150000002339535596612313006_);fill:#FFFFFF;" points="
				413.405,86.795 380.361,132.497 384.302,136.373 419.653,92.471 			"/>
			<polygon style="opacity:0.1;clip-path:url(#SVGID_00000111152983128167924150000002339535596612313006_);fill:#FFFFFF;" points="
				418.371,80.25 381.583,133.565 383.614,134.694 421.052,82.485 			"/>
		</g>
		<g>
			<defs>
				<path id="SVGID_00000061443655015644249440000010598796556631731612_" d="M385.448,121.634l8.407,7.125l-65.833,87.699
					c0,0-5.407,9.426-13.111,3.229c-7.703-6.197-1.818-13.063,1.546-17.245C319.82,198.261,385.448,121.634,385.448,121.634z"/>
			</defs>
			<use xlink:href="#SVGID_00000061443655015644249440000010598796556631731612_"  style="overflow:visible;fill:#ECCA06;"/>
			<clipPath id="SVGID_00000163762479756159984020000004275509959447453593_">
				<use xlink:href="#SVGID_00000061443655015644249440000010598796556631731612_"  style="overflow:visible;"/>
			</clipPath>
			<path style="opacity:0.15;clip-path:url(#SVGID_00000163762479756159984020000004275509959447453593_);fill:#DAA109;" d="
				M376.095,122.087l11.313,10.857c0,0-60.611,85.629-67.729,80.702c-7.118-4.928-4.673-14.754-4.673-14.754l-14.249,20.743
				l23.033,14.094l73.293-102.734l-16.38-13.934L376.095,122.087z"/>
		</g>
		<polygon style="fill:#4E8484;" points="385.448,121.634 364.207,146.237 374.331,154.381 393.854,128.759 		"/>
	</g>
	<g>
		<g>
			<g>
				<defs>
					<path id="SVGID_00000162323893552525312850000002332740214612797340_" d="M407.155,331.02l12.162-0.276
						c2.935-0.067,4.862,3.07,3.456,5.648c-0.137,0.251-0.278,0.493-0.422,0.721c-0.754,1.191-0.858,2.681-0.19,3.923
						c0.458,0.853,0.846,1.824,0.846,2.666c0,1.945,0.23,67.207,0.255,74.092c0.002,0.464-0.034,0.916-0.108,1.374
						c-0.448,2.754-2.464,11.787-9.641,11.787c-7.767,0-10.008-5.646-10.008-11.805c0-5.688,0.876-65.226,1.009-74.293
						c0.011-0.755,0.245-1.487,0.673-2.109l0.037-0.054c1.061-1.543,0.807-3.586-0.5-4.926c-0.149-0.153-0.298-0.317-0.443-0.492
						C402.244,334.82,403.968,331.092,407.155,331.02z"/>
				</defs>
				<use xlink:href="#SVGID_00000162323893552525312850000002332740214612797340_"  style="overflow:visible;fill:#ECCA06;"/>
				<clipPath id="SVGID_00000070097163178854552950000009209383173105433229_">
					<use xlink:href="#SVGID_00000162323893552525312850000002332740214612797340_"  style="overflow:visible;"/>
				</clipPath>
				
					<rect x="388.876" y="204.61" style="opacity:0.15;clip-path:url(#SVGID_00000070097163178854552950000009209383173105433229_);fill:#404042;" width="25.406" height="259.448"/>
			</g>
			<path style="fill:#C4C9DD;" d="M409.278,240.409l4.234-7.506l3.849,7.314v90.46h-7.891
				C409.47,330.677,408.989,240.12,409.278,240.409z"/>
			<path style="fill:#929294;" d="M413.512,232.903c0,0,2.887,7.891,0.385,7.891C411.395,240.794,412.742,235.405,413.512,232.903z"
				/>
		</g>
		<g>
			<g>
				<defs>
					<path id="SVGID_00000041270000105602558750000011796386179480982445_" d="M361.729,337.847l9.341,0.158
						c1.598,0.027,2.857,1.371,2.779,2.968l-0.329,6.737c-0.028,0.565-0.224,1.108-0.563,1.56l-0.316,0.422
						c-0.845,1.127-0.733,2.703,0.263,3.699l2.059,2.059c0.528,0.528,0.826,1.244,0.829,1.991l0.251,65.718
						c0.001,0.246-0.028,0.489-0.092,0.727c-0.471,1.762-2.818,9.151-9.145,9.377c-7.186,0.257-10.522-5.646-10.522-12.061
						c0-5.841,0.638-55.283,0.752-64.098c0.011-0.853,0.406-1.649,1.076-2.178l1.319-1.041c1.33-1.05,1.445-3.025,0.248-4.223l0,0
						c-0.531-0.531-0.829-1.251-0.829-2.001v-6.984C358.851,339.095,360.147,337.82,361.729,337.847z"/>
				</defs>
				<use xlink:href="#SVGID_00000041270000105602558750000011796386179480982445_"  style="overflow:visible;fill:#DAA109;"/>
				<clipPath id="SVGID_00000070117462211868313500000009054915019683977122_">
					<use xlink:href="#SVGID_00000041270000105602558750000011796386179480982445_"  style="overflow:visible;"/>
				</clipPath>
				
					<rect x="343.453" y="202.685" style="opacity:0.15;clip-path:url(#SVGID_00000070117462211868313500000009054915019683977122_);fill:#404042;" width="22.326" height="240.201"/>
			</g>
			<rect x="360.134" y="330.099" style="fill:#C4C9DD;" width="11.035" height="8.212"/>
			<g>
				<defs>
					<path id="SVGID_00000147210030012049949520000007701259751472915390_" d="M351.192,234.827h29.985l-1.428,85.456
						c0,0-1.904,11.163-13.327,10.778c-11.423-0.385-15.702-2.981-16.182-14.243C349.764,305.656,351.192,234.827,351.192,234.827z"
						/>
				</defs>
				<use xlink:href="#SVGID_00000147210030012049949520000007701259751472915390_"  style="overflow:visible;fill:#C4C9DD;"/>
				<clipPath id="SVGID_00000183209754855134306290000010964809520620093842_">
					<use xlink:href="#SVGID_00000147210030012049949520000007701259751472915390_"  style="overflow:visible;"/>
				</clipPath>
				
					<rect x="360.134" y="222.317" style="opacity:0.15;clip-path:url(#SVGID_00000183209754855134306290000010964809520620093842_);fill:#FFFFFF;" width="10.778" height="115.995"/>
				
					<rect x="362.7" y="209.229" style="opacity:0.1;clip-path:url(#SVGID_00000183209754855134306290000010964809520620093842_);fill:#FFFFFF;" width="5.389" height="130.109"/>
			</g>
			<rect x="351.152" y="234.442" style="fill:#929294;" width="30.025" height="11.548"/>
		</g>
		<g>
			<g>
				<defs>
					<path id="SVGID_00000173880878583744272160000004239134672368363706_" d="M314.975,337.847l9.341,0.158
						c1.598,0.027,2.857,1.371,2.779,2.968l-0.329,6.737c-0.028,0.565-0.224,1.108-0.563,1.56l-0.316,0.422
						c-0.845,1.127-0.733,2.703,0.263,3.699l2.059,2.059c0.528,0.528,0.826,1.244,0.829,1.991l0.251,65.718
						c0.001,0.246-0.028,0.489-0.092,0.727c-0.471,1.762-2.818,9.151-9.145,9.377c-7.186,0.257-10.522-5.646-10.522-12.061
						c0-5.841,0.638-55.283,0.752-64.098c0.011-0.853,0.406-1.649,1.076-2.178l1.319-1.041c1.33-1.05,1.445-3.025,0.248-4.223l0,0
						c-0.531-0.531-0.829-1.251-0.829-2.001v-6.984C312.097,339.095,313.393,337.82,314.975,337.847z"/>
				</defs>
				<use xlink:href="#SVGID_00000173880878583744272160000004239134672368363706_"  style="overflow:visible;fill:#4E8484;"/>
				<clipPath id="SVGID_00000165939103673157185400000001281933622686062985_">
					<use xlink:href="#SVGID_00000173880878583744272160000004239134672368363706_"  style="overflow:visible;"/>
				</clipPath>
				
					<rect x="287.637" y="223.472" style="opacity:0.15;clip-path:url(#SVGID_00000165939103673157185400000001281933622686062985_);fill:#404042;" width="32.335" height="219.415"/>
			</g>
			<rect x="313.941" y="328.816" style="fill:#C4C9DD;" width="10.008" height="10.008"/>
			<g>
				<defs>
					<path id="SVGID_00000109730107273255440930000004913169326580977295_" d="M307.654,233.865h24.251l-1.155,85.456
						c0,0-1.54,11.163-10.778,10.778c-9.239-0.385-12.7-2.981-13.088-14.243C306.499,304.693,307.654,233.865,307.654,233.865z"/>
				</defs>
				<use xlink:href="#SVGID_00000109730107273255440930000004913169326580977295_"  style="overflow:visible;fill:#C4C9DD;"/>
				<clipPath id="SVGID_00000050631755610543364070000004840352556663664264_">
					<use xlink:href="#SVGID_00000109730107273255440930000004913169326580977295_"  style="overflow:visible;"/>
				</clipPath>
				
					<rect x="312.658" y="213.848" style="opacity:0.15;clip-path:url(#SVGID_00000050631755610543364070000004840352556663664264_);fill:#FFFFFF;" width="11.548" height="148.586"/>
				
					<rect x="316.251" y="222.83" style="opacity:0.1;clip-path:url(#SVGID_00000050631755610543364070000004840352556663664264_);fill:#FFFFFF;" width="5.133" height="120.357"/>
			</g>
			<rect x="307.462" y="233.56" style="fill:#929294;" width="24.251" height="11.548"/>
		</g>
	</g>
	<g>
		<g>
			<defs>
				<path id="SVGID_00000084517634839237501810000003945874565348930998_" d="M285.479,127.457l6.137,0.178l-24.186-54.511
					L66.235,96.22l1.982,25.075l0.497,0.015c0.203,0.843-0.737-3.054,1.988,8.243c0.34-0.827-1.231,2.996,3.323-8.088l0.568,0.016
					l0.703,2.918l1.283,5.302l3-7.291l0.318-0.781l0.58,0.015l0.078,0.313l1.902,7.9l3.313-8.063l0.593,0.021l1.977,8.19
					l3.303-8.047l0.598,0.021l1.977,8.182l3.299-8.031l0.609,0.012l1.969,8.167l3.294-8.015l0.622,0.019l1.968,8.152l3.283-8.006
					l0.628,0.018l1.749,7.243l0.217,0.894l0.508-1.229l2.777-6.753l0.634,0.018l1.117,4.629l0.842,3.492l1.974-4.801l1.306-3.174
					l0.646,0.016l0.486,2.025l1.384,5.73l0.088,0.359l0.203-0.496l3.066-7.469l0.652,0.023l1.244,5.141l0.712,2.949l1.67-4.053
					l1.596-3.889l0.663,0.015l0.613,2.536l1.337,5.547c0.335-0.815-1.21,2.944,3.26-7.933c0.06,0.002,0.736,0.023,0.676,0.021
					l1.947,8.06l3.25-7.917l0.688,0.02l1.94,8.053l3.245-7.909l0.694,0.019l1.384,5.73l0.555,2.307l1.306-3.173l1.935-4.711
					l0.706,0.019l0.752,3.117l1.186,4.905c0.331-0.806-1.199,2.917,3.235-7.876l0.712,0.018l0.12,0.505l1.81,7.502l3.231-7.86
					l0.718,0.025l1.929,7.991l3.227-7.844l0.729,0.016l1.927,7.976l3.217-7.828l0.741,0.023l1.92,7.961l3.211-7.819l0.748,0.022
					l1.919,7.953l3.207-7.803l0.759,0.021l1.917,7.93l3.196-7.786l0.772,0.02l1.91,7.923l3.191-7.778l0.777,0.02l1.909,7.907
					l3.193-7.763l0.784,0.026l1.907,7.892l3.183-7.746l0.795,0.018l1.9,7.877l3.178-7.73l0.802,0.025l1.898,7.861l3.173-7.722
					l0.814,0.024l1.897,7.846l3.163-7.698l0.825,0.023l1.889,7.831l3.158-7.689l0.837,0.021l1.882,7.816l3.154-7.673l0.844,0.028
					l1.886,7.8l3.143-7.664l0.855,0.028l1.88,7.793l3.144-7.649l0.861,0.019l1.872,7.778l3.14-7.632l0.868,0.026l1.877,7.762
					l3.129-7.624l0.879,0.025l1.869,7.747l3.125-7.6l0.891,0.024l1.862,7.732l3.12-7.591l0.897,0.023l1.866,7.716L285.479,127.457z"
					/>
			</defs>
			<use xlink:href="#SVGID_00000084517634839237501810000003945874565348930998_"  style="overflow:visible;fill:#C4C9DD;"/>
			<clipPath id="SVGID_00000021103941646742554640000015800493258282690977_">
				<use xlink:href="#SVGID_00000084517634839237501810000003945874565348930998_"  style="overflow:visible;"/>
			</clipPath>
			
				<polygon style="opacity:0.15;clip-path:url(#SVGID_00000021103941646742554640000015800493258282690977_);fill:#FFFFFF;" points="
				244.333,56.443 102.676,138.435 156.182,144.209 268.969,66.067 			"/>
			
				<polygon style="opacity:0.15;clip-path:url(#SVGID_00000021103941646742554640000015800493258282690977_);fill:#FFFFFF;" points="
				262.81,46.82 133.086,133.816 142.71,141.899 269.354,49.514 			"/>
		</g>
		<g>
			<defs>
				<path id="XMLID_7_" d="M249.995,78.082l-0.055,18.822c-0.003,1.081,0.543,2.094,1.459,2.708l3.47,2.324
					c0.426,0.285,0.911,0.472,1.418,0.547l8.247,1.209c0.765,0.112,1.468,0.476,1.99,1.032l20.193,21.486
					c0.714,0.76,1.755,1.15,2.81,1.054l41.542-3.793c1.136-0.104,2.14-0.757,2.672-1.737l0,0c0.644-1.188,0.474-2.653-0.425-3.662
					l-6.523-7.32c-0.417-0.468-0.689-1.048-0.781-1.669l-2.496-16.805c-0.164-1.104-0.607-2.149-1.287-3.034l-6.306-8.215
					c-0.359-0.468-0.582-1.025-0.645-1.611l-1.014-9.424c-0.143-1.331-1.105-2.444-2.43-2.812l-1.174-0.326
					c-0.445-0.123-0.91-0.157-1.368-0.098l-55.108,7.06c-0.638,0.082-1.24,0.341-1.739,0.747l-1.245,1.016
					C250.438,76.201,249.998,77.116,249.995,78.082z"/>
			</defs>
			<use xlink:href="#XMLID_7_"  style="overflow:visible;fill:#EECA06;"/>
			<clipPath id="XMLID_00000056392118091328617520000016481094245948983475_">
				<use xlink:href="#XMLID_7_"  style="overflow:visible;"/>
			</clipPath>
			
				<polygon style="opacity:0.15;clip-path:url(#XMLID_00000056392118091328617520000016481094245948983475_);fill:#DAA109;" points="
				328.398,110.983 336.61,119.323 329.04,127.535 293.754,131.384 289.391,122.787 329.168,120.606 322.239,109.571 
				319.801,89.683 310.306,79.931 309.665,68.768 261.345,76.052 256.286,66.073 320.058,61.454 			"/>
		</g>
		<path style="fill:#4E8484;" d="M265.575,75.581L265.575,75.581c0.051,0.665,0.272,1.306,0.642,1.861l30.287,45.486
			c1.646,2.471,0.033,5.802-2.926,6.043l-4.013,0.328c-1.238,0.101-2.45-0.394-3.263-1.333l-17.614-20.342
			c-0.631-0.729-1.51-1.198-2.467-1.316l-9.474-1.172c-0.956-0.118-1.835-0.587-2.466-1.315l-3.224-3.72
			c-0.521-0.601-0.845-1.347-0.93-2.137l-2.094-19.559c-0.134-1.256,0.348-2.499,1.295-3.335l1.405-1.241
			c0.609-0.538,1.37-0.872,2.178-0.955l8.379-0.87C263.469,71.777,265.407,73.394,265.575,75.581z"/>
		<path style="fill:#FFFFFF;" d="M283.921,81.694l18.632,33.313c0.785,1.404,2.428,2.089,3.978,1.659l9.636-2.672
			c1.706-0.473,2.788-2.149,2.515-3.899l-0.219-1.409c-0.13-0.836-0.559-1.596-1.207-2.139l-7.745-6.487
			c-0.99-0.829-1.73-1.916-2.138-3.141l-0.993-2.979c-0.119-0.356-0.179-0.728-0.179-1.103V82.233c0-0.824-0.291-1.621-0.822-2.25
			l-1.627-1.928c-0.646-0.765-1.589-1.216-2.589-1.238l-14.118-0.314c-1.033-0.023-2.023,0.413-2.703,1.191l0,0
			C283.368,78.804,283.2,80.406,283.921,81.694z"/>
		<circle style="fill:#FFFFFF;" cx="73.441" cy="106.62" r="2.438"/>
		<ellipse style="fill:#404042;" cx="251.149" cy="77.592" rx="1.278" ry="1.501"/>
		<ellipse style="fill:#404042;" cx="262.623" cy="76.052" rx="1.278" ry="1.501"/>
		<ellipse style="fill:#404042;" cx="254.166" cy="98.489" rx="1.278" ry="1.501"/>
		<ellipse style="fill:#404042;" cx="267.07" cy="102.473" rx="1.278" ry="1.501"/>
		
			<ellipse transform="matrix(0.9934 -0.1144 0.1144 0.9934 -12.4529 33.7175)" style="fill:#404042;" cx="287.458" cy="125.325" rx="1.014" ry="1.191"/>
		
			<ellipse transform="matrix(0.9934 -0.1144 0.1144 0.9934 -12.5252 34.4716)" style="fill:#404042;" cx="293.99" cy="126.332" rx="1.014" ry="1.191"/>
	</g>
	<g>
		<g>
			<defs>
				<polygon id="SVGID_00000160180397877258142350000014176334193301645485_" points="191.595,389.716 195.45,387.355 
					191.595,384.991 195.164,382.214 191.071,380.294 194.307,377.135 190.023,375.688 192.884,372.186 188.465,371.229 
					190.912,367.43 186.412,366.98 188.418,362.925 183.895,362.981 185.435,358.728 180.95,359.288 182.004,354.891 
					177.607,355.947 178.167,351.458 173.915,352.997 173.972,348.475 169.915,350.481 169.465,345.981 165.662,348.428 
					164.708,344.008 161.204,346.868 159.755,342.581 156.597,345.819 154.675,341.725 151.897,345.294 149.534,341.439 
					147.17,345.294 144.393,341.725 142.472,345.817 139.315,342.581 137.868,346.866 134.364,344.006 133.409,348.423 
					129.607,345.977 129.157,350.476 125.103,348.472 125.159,352.993 120.907,351.453 121.466,355.94 117.07,354.884 
					118.128,359.28 113.639,358.721 115.175,362.974 110.654,362.919 112.659,366.971 108.16,367.423 110.606,371.224 
					106.185,372.181 109.045,375.684 104.761,377.134 107.997,380.291 103.903,382.214 107.474,384.989 103.618,387.355 
					107.474,389.722 103.903,392.496 107.997,394.415 104.76,397.575 109.044,399.021 106.183,402.526 110.604,403.478 
					108.156,407.281 112.655,407.733 110.65,411.784 115.172,411.73 113.632,415.981 118.12,415.423 117.063,419.818 
					121.459,418.763 120.9,423.251 125.151,421.711 125.096,426.234 129.149,424.228 129.6,428.729 133.404,426.283 
					134.359,430.703 137.862,427.845 139.312,432.128 142.47,428.89 144.393,432.986 147.17,429.416 149.534,433.271 
					151.897,429.416 154.675,432.986 156.595,428.89 159.755,432.127 161.199,427.845 164.703,430.704 165.658,426.286 
					169.46,428.732 169.91,424.233 173.963,426.24 173.907,421.717 178.16,423.256 177.6,418.77 181.997,419.825 180.942,415.428 
					185.43,415.989 183.892,411.737 188.413,411.792 186.407,407.738 190.908,407.287 188.461,403.485 192.882,402.528 
					190.023,399.025 194.307,397.576 191.069,394.419 195.164,392.496 				"/>
			</defs>
			<defs>
				<path id="SVGID_00000067947656822353964090000009153375227215200131_" d="M149.534,394.535c-3.966,0-7.182-3.215-7.182-7.18
					c0-3.966,3.215-7.18,7.182-7.18c3.965,0,7.181,3.214,7.181,7.18C156.715,391.32,153.499,394.535,149.534,394.535z"/>
			</defs>
			<use xlink:href="#SVGID_00000160180397877258142350000014176334193301645485_"  style="overflow:visible;fill:#C4C9DD;"/>
			<use xlink:href="#SVGID_00000067947656822353964090000009153375227215200131_"  style="overflow:visible;fill:#C4C9DD;"/>
			<clipPath id="SVGID_00000132790267499906614430000003532786878734990977_">
				<use xlink:href="#SVGID_00000160180397877258142350000014176334193301645485_"  style="overflow:visible;"/>
			</clipPath>
			
				<clipPath id="SVGID_00000145761858324471018900000007595298150359405448_" style="clip-path:url(#SVGID_00000132790267499906614430000003532786878734990977_);">
				<use xlink:href="#SVGID_00000067947656822353964090000009153375227215200131_"  style="overflow:visible;"/>
			</clipPath>
			
				<polygon style="opacity:0.15;clip-path:url(#SVGID_00000145761858324471018900000007595298150359405448_);fill:#FFFFFF;" points="
				187.55,320.394 82.847,403.797 94.908,418.682 201.407,335.022 			"/>
			
				<polygon style="opacity:0.15;clip-path:url(#SVGID_00000145761858324471018900000007595298150359405448_);fill:#FFFFFF;" points="
				197.253,355.68 92.55,439.083 104.612,453.968 211.111,370.308 			"/>
			
				<polygon style="opacity:0.15;clip-path:url(#SVGID_00000145761858324471018900000007595298150359405448_);fill:#FFFFFF;" points="
				209.507,352.569 110.45,430.069 116.352,436.228 216.179,358.471 			"/>
			
				<polygon style="opacity:0.15;clip-path:url(#SVGID_00000145761858324471018900000007595298150359405448_);fill:#FFFFFF;" points="
				186.411,324.853 84.017,407.486 87.867,414.159 190.774,333.578 			"/>
		</g>
		<g>
			<defs>
				<path id="XMLID_21_" d="M191.717,373.6h11.917c2.357,0,4.268-1.911,4.268-4.268l0,0c0-2.778,2.25-4.73,5.001-4.337l3.705,0.529
					c1.249,0.178,2.521-0.104,3.577-0.794l9.975-6.514c0.505-0.466,1.037-1.001,1.575-1.613c0.682-0.775,1.247-1.529,1.712-2.222
					c0.935-2.016,2.095-5.178,2.368-9.192c0.18-2.66,0.162-3.647-0.186-5.385c-0.232-1.161-0.279-2.368-1.584-3.827
					c-2.687-3.183-37.555-32.549-37.555-32.549c-0.87-0.735-1.958-1.164-3.095-1.221l-1.866-0.093
					c-1.258-0.063-2.495,0.333-3.483,1.114l-26.333,20.816c-0.895,0.708-1.999,1.101-3.14,1.119l-43.969,0.17
					c-1.021,0.016-6.806,0.945-7.648,1.522l-7.661,5.253c-0.527,0.361-3.063,4.246-3.424,4.772l-12.051,17.125
					c-0.422,0.614-0.971,1.129-1.609,1.512l-13.45,8.07c-2.139,1.283-3.065,3.905-2.206,6.247l0.335,0.912
					c0.751,2.047,2.7,3.408,4.88,3.408h25.323c1.095,0,2.163-0.346,3.05-0.989l24.465-17.725c0.95-0.688,2.105-1.035,3.277-0.984
					l46.611,2.038c1.609,0.07,3.094,0.882,4.021,2.198l8.953,12.701C188.442,372.779,190.027,373.6,191.717,373.6z"/>
			</defs>
			<use xlink:href="#XMLID_21_"  style="overflow:visible;fill:#EECA06;"/>
			<clipPath id="XMLID_00000143598936314550248900000016893924168566234262_">
				<use xlink:href="#XMLID_21_"  style="overflow:visible;"/>
			</clipPath>
			<path style="opacity:0.15;clip-path:url(#XMLID_00000143598936314550248900000016893924168566234262_);fill:#DAA109;" d="
				M99.72,375.633l1.54-8.212c0,0-28.999,2.823-28.485,0c0.513-2.823,12.831-2.31,15.911-7.955s12.575-21.557,15.141-23.353
				c2.566-1.796,10.265-5.646,15.654-5.902s46.193-1.54,46.193-1.54s20.53-22.07,25.919-23.096
				c5.389-1.026,41.317,31.565,41.83,34.131c0.513,2.566,1.54,12.061-6.159,17.451s-15.141,6.672-19.247,4.363
				s-1.283,8.469-3.336,8.469c-2.053,0-10.008,2.31-10.008,2.31l0.77,7.699l17.451-2.053v-8.212l33.618-12.318l-24.893-56.714
				l-45.936-8.725l-19.247,28.999l-65.953,2.823L74.827,352.28l-15.654,4.619v29.512L99.72,375.633z"/>
		</g>
		<g>
			<defs>
				<path id="XMLID_6_" d="M184.776,333.845l25.693,23.044c0,0,6.963,2.507,13.091-4.735c6.128-7.242,1.114-13.648,1.114-13.648
					l-26.739-22.004c0,0-4.549-4.828-11.977,2.182c-3.863,3.645-4.489,7.139-4.15,9.721
					C182.084,330.513,183.192,332.424,184.776,333.845z"/>
			</defs>
			<use xlink:href="#XMLID_6_"  style="overflow:visible;fill:#FFFFFF;"/>
			<clipPath id="XMLID_00000078042116481921762780000005046496195733203588_">
				<use xlink:href="#XMLID_6_"  style="overflow:visible;"/>
			</clipPath>
			<path style="clip-path:url(#XMLID_00000078042116481921762780000005046496195733203588_);fill:#DAA109;" d="M185.3,318.144
				c-0.296,0.133-0.173,0.552,0.153,0.522c2.794-0.26,7.904-0.023,12.082,4.129c5.401,5.368,22.225,17.82,25.955,20.563
				c0.506,0.372,0.881,0.871,1.094,1.443c0.647,1.738-0.086,4.077-0.333,7.649c-0.017,0.25-0.172,1.002-0.066,0.772l4.424-3.153
				c1.445-4.152,1.491-7.252-1.394-9.77l-27.481-23.984c-2.4-2.094-6.836-3.003-9.588-1.34L185.3,318.144z"/>
			<path style="clip-path:url(#XMLID_00000078042116481921762780000005046496195733203588_);fill:#404042;" d="M192.495,317.033
				c0,0-3.711,4.419-1.142,5.987c2.569,1.568,4.71,0.57,7.279,2.709c2.569,2.138,3.14,7.841,5.851,7.556
				c2.712-0.285,5.281-4.134,5.281-4.134L192.495,317.033z"/>
		</g>
		<g>
			<defs>
				<path id="SVGID_00000152965569275023356260000005794363882191793538_" d="M94.877,385.856l24.511-0.279
					c0,0,5.292-25.625,30.082-25.347c22.845,0.257,28.41,22.84,28.41,22.84l24.789,0.557c0,0-1.347-52.086-55.428-52.086
					C95.156,331.542,94.877,385.856,94.877,385.856z"/>
			</defs>
			<use xlink:href="#SVGID_00000152965569275023356260000005794363882191793538_"  style="overflow:visible;fill:#4E8484;"/>
			<clipPath id="SVGID_00000011013248893871516200000011882503064017139131_">
				<use xlink:href="#SVGID_00000152965569275023356260000005794363882191793538_"  style="overflow:visible;"/>
			</clipPath>
			<path style="opacity:0.15;clip-path:url(#SVGID_00000011013248893871516200000011882503064017139131_);fill:#404042;" d="
				M96.64,341.245c0,0,43.796-4.712,69.545,11.035c31.052,18.99,36.441,43.626,36.441,43.626l21.3-8.212
				c0,0-13.601-57.227-61.077-73.395s-63.386,4.363-63.386,4.363L96.64,341.245z"/>
		</g>
	</g>
</g>
<g id="DESIGNED_BY_FREEPIK">
	<g>
		<g id="XMLID_319_">
			<g id="XMLID_338_">
				<path id="XMLID_346_" style="fill:#1D262D;" d="M260.104,465.465c-0.432,0.443-0.803,0.931-1.108,1.453l-0.465-0.241
					c-0.067-0.298-0.349-0.503-0.659-0.466c-0.331,0.039-0.568,0.339-0.529,0.67c0.039,0.331,0.339,0.568,0.67,0.529
					c0.066-0.008,0.127-0.026,0.184-0.052l0.451,0.234c-0.251,0.554-0.433,1.139-0.539,1.744l0.747,0.132
					c0.23-1.306,0.85-2.507,1.792-3.473L260.104,465.465z"/>
				<path id="XMLID_345_" style="fill:#1D262D;" d="M265.592,463.163c-0.171,0-0.341,0.006-0.51,0.017l-0.074-0.626
					c0.188-0.149,0.296-0.389,0.266-0.645c-0.046-0.393-0.402-0.674-0.795-0.628c-0.393,0.046-0.674,0.402-0.628,0.795
					c0.03,0.254,0.189,0.461,0.404,0.564l0.074,0.624c-0.714,0.116-1.403,0.332-2.06,0.646l0.327,0.684
					c0.934-0.447,1.942-0.673,2.995-0.673c0.496,0,0.993,0.053,1.475,0.158l0.161-0.741
					C266.692,463.222,266.142,463.163,265.592,463.163z"/>
				<path id="XMLID_344_" style="fill:#1D262D;" d="M272.194,465.711c0.331-0.04,0.566-0.341,0.526-0.672
					c-0.04-0.331-0.341-0.566-0.672-0.526c-0.309,0.038-0.535,0.304-0.53,0.609l-0.416,0.363c-0.418-0.43-0.889-0.813-1.408-1.139
					l-0.404,0.641c1.134,0.715,2.021,1.726,2.563,2.925l0.69-0.313c-0.251-0.554-0.567-1.072-0.942-1.545l0.402-0.351
					C272.065,465.716,272.129,465.719,272.194,465.711z"/>
				<path id="XMLID_343_" style="fill:#1D262D;" d="M265.044,473.372c-0.386,0.023-0.775,0.035-1.157,0.035
					c-0.88,0-1.733-0.061-2.478-0.179c-0.39-0.062-0.846-0.155-1.27-0.292c1.046,1.861,3.069,3.125,5.388,3.125
					c2.855,0,5.262-1.916,5.95-4.504c-0.682,0.449-1.505,0.825-2.459,1.123C267.839,473.047,266.463,473.286,265.044,473.372z"/>
				<path id="XMLID_339_" style="fill:#1D262D;" d="M265.592,464.68c-3.352,0-6.08,2.666-6.08,5.943
					c0,0.426,0.046,0.849,0.137,1.261c0.673,0.483,2.706,0.89,5.348,0.731c2.879-0.173,5.297-0.957,6.672-2.159
					c-0.006-0.195-0.021-0.39-0.045-0.582C271.244,466.913,268.65,464.68,265.592,464.68z M263.432,471.194
					c-1.02,0-1.85-0.83-1.85-1.85c0-1.02,0.83-1.85,1.85-1.85c1.02,0,1.85,0.83,1.85,1.85
					C265.282,470.365,264.452,471.194,263.432,471.194z M268.17,470.286c-0.75,0-1.36-0.61-1.36-1.36s0.61-1.361,1.36-1.361
					c0.75,0,1.361,0.61,1.361,1.361S268.92,470.286,268.17,470.286z"/>
			</g>
			<path id="XMLID_336_" style="fill:#1D262D;" d="M281.595,466.547c-0.295-0.116-0.805-0.309-1.382-0.237
				c-0.551,0.069-0.844,0.341-0.844,1.007v0.866h2.228v1.717h-2.228v5.455h-1.932v-5.455h-1.34v-1.717h1.34v-0.888
				c0-1.68,0.896-2.783,2.568-2.783c0.643,0,1.157,0.122,1.59,0.308L281.595,466.547z"/>
			<path id="XMLID_334_" style="fill:#1D262D;" d="M286.298,469.879c-0.177-0.03-0.358-0.046-0.526-0.046
				c-0.896,0-1.51,0.548-1.51,1.614v3.908h-1.932v-7.172h1.873v0.785c0.451-0.673,1.14-0.977,2.021-0.977
				c0.414,0,0.848,0.128,1.094,0.337L286.298,469.879z"/>
			<path id="XMLID_331_" style="fill:#1D262D;" d="M293.965,471.757c0,0.222-0.015,0.489-0.037,0.651h-5.085
				c0.207,1.036,0.933,1.488,1.843,1.488c0.622,0,1.295-0.252,1.813-0.688l1.133,1.243c-0.814,0.748-1.85,1.088-3.057,1.088
				c-2.198,0-3.723-1.495-3.723-3.753c0-2.258,1.48-3.797,3.627-3.797C292.544,467.99,293.958,469.522,293.965,471.757z
				 M288.851,471.091h3.175c-0.177-0.918-0.733-1.436-1.562-1.436C289.554,469.655,289.021,470.203,288.851,471.091z"/>
			<path id="XMLID_328_" style="fill:#1D262D;" d="M301.618,471.757c0,0.222-0.015,0.489-0.037,0.651h-5.085
				c0.207,1.036,0.932,1.488,1.843,1.488c0.622,0,1.295-0.252,1.814-0.688l1.132,1.243c-0.814,0.748-1.85,1.088-3.057,1.088
				c-2.198,0-3.723-1.495-3.723-3.753c0-2.258,1.48-3.797,3.627-3.797C300.197,467.99,301.611,469.522,301.618,471.757z
				 M296.504,471.091h3.175c-0.178-0.918-0.733-1.436-1.562-1.436C297.207,469.655,296.674,470.203,296.504,471.091z"/>
			<path id="XMLID_325_" style="fill:#1D262D;" d="M309.964,471.764c0,2.154-1.495,3.775-3.471,3.775
				c-0.962,0-1.643-0.378-2.109-0.933v3.708h-1.924v-10.133h1.887v0.792c0.466-0.585,1.155-0.984,2.139-0.984
				C308.469,467.99,309.964,469.61,309.964,471.764z M304.287,471.764c0,1.132,0.747,1.976,1.843,1.976
				c1.14,0,1.85-0.881,1.85-1.976c0-1.095-0.71-1.976-1.85-1.976C305.035,469.788,304.287,470.632,304.287,471.764z"/>
			<path id="XMLID_322_" style="fill:#1D262D;" d="M313.068,465.836c0,0.696-0.54,1.229-1.236,1.229
				c-0.696,0-1.229-0.533-1.229-1.229c0-0.696,0.533-1.243,1.229-1.243C312.527,464.592,313.068,465.14,313.068,465.836z
				 M312.809,475.354h-1.932v-7.172h1.932V475.354z"/>
			<path id="XMLID_320_" style="fill:#1D262D;" d="M316.032,470.736l2.701-2.554h2.368l-3.479,3.375l3.501,3.797h-2.376
				l-2.716-2.901v2.901H314.1v-10.658h1.932V470.736z"/>
		</g>
		<g>
			<path style="fill:#1D262D;" d="M184.412,475.289v-1.055c-0.527,0.718-1.391,1.23-2.388,1.23c-1.846,0-3.149-1.406-3.149-3.706
				c0-2.256,1.289-3.721,3.149-3.721c0.952,0,1.816,0.469,2.388,1.245v-3.765h1.099v9.77H184.412z M184.412,473.37v-3.208
				c-0.395-0.615-1.245-1.143-2.124-1.143c-1.421,0-2.27,1.172-2.27,2.739c0,1.567,0.85,2.724,2.27,2.724
				C183.168,474.483,184.017,473.986,184.412,473.37z"/>
			<path style="fill:#1D262D;" d="M186.932,471.744c0-2.051,1.465-3.706,3.486-3.706c2.139,0,3.398,1.67,3.398,3.794v0.279h-5.727
				c0.088,1.333,1.025,2.446,2.549,2.446c0.805,0,1.626-0.322,2.182-0.894l0.527,0.718c-0.703,0.703-1.655,1.084-2.812,1.084
				C188.44,475.465,186.932,473.956,186.932,471.744z M190.403,468.947c-1.509,0-2.256,1.274-2.314,2.358h4.643
				C192.718,470.25,192.015,468.947,190.403,468.947z"/>
			<path style="fill:#1D262D;" d="M194.607,474.351l0.571-0.791c0.469,0.542,1.362,1.011,2.329,1.011c1.084,0,1.67-0.513,1.67-1.216
				c0-1.714-4.38-0.659-4.38-3.281c0-1.098,0.952-2.036,2.636-2.036c1.201,0,2.051,0.454,2.622,1.026l-0.513,0.762
				c-0.424-0.513-1.201-0.894-2.109-0.894c-0.967,0-1.567,0.483-1.567,1.113c0,1.552,4.38,0.527,4.38,3.281
				c0,1.187-0.952,2.138-2.783,2.138C196.306,475.465,195.325,475.113,194.607,474.351z"/>
			<path style="fill:#1D262D;" d="M201.477,466.471c0-0.41,0.337-0.747,0.732-0.747c0.41,0,0.747,0.337,0.747,0.747
				c0,0.41-0.337,0.732-0.747,0.732C201.814,467.203,201.477,466.881,201.477,466.471z M201.667,475.289v-7.075h1.099v7.075H201.667
				z"/>
			<path style="fill:#1D262D;" d="M204.582,477.105l0.556-0.82c0.586,0.703,1.289,0.967,2.3,0.967c1.172,0,2.27-0.571,2.27-2.124
				v-1.011c-0.513,0.718-1.377,1.26-2.373,1.26c-1.845,0-3.149-1.377-3.149-3.662c0-2.27,1.289-3.677,3.149-3.677
				c0.952,0,1.802,0.469,2.373,1.245v-1.069h1.098v6.87c0,2.344-1.641,3.076-3.369,3.076
				C206.237,478.16,205.417,477.926,204.582,477.105z M209.709,473.253v-3.091c-0.381-0.615-1.23-1.143-2.109-1.143
				c-1.421,0-2.27,1.128-2.27,2.695c0,1.553,0.849,2.695,2.27,2.695C208.478,474.41,209.328,473.868,209.709,473.253z"/>
			<path style="fill:#1D262D;" d="M217.413,475.289v-4.629c0-1.245-0.63-1.641-1.582-1.641c-0.865,0-1.685,0.527-2.095,1.099v5.17
				h-1.099v-7.075h1.099v1.025c0.498-0.586,1.465-1.201,2.519-1.201c1.48,0,2.256,0.747,2.256,2.285v4.966H217.413z"/>
			<path style="fill:#1D262D;" d="M219.932,471.744c0-2.051,1.465-3.706,3.486-3.706c2.139,0,3.398,1.67,3.398,3.794v0.279h-5.727
				c0.088,1.333,1.025,2.446,2.549,2.446c0.806,0,1.626-0.322,2.183-0.894l0.527,0.718c-0.703,0.703-1.655,1.084-2.812,1.084
				C221.441,475.465,219.932,473.956,219.932,471.744z M223.404,468.947c-1.509,0-2.256,1.274-2.314,2.358h4.643
				C225.718,470.25,225.015,468.947,223.404,468.947z"/>
			<path style="fill:#1D262D;" d="M233.35,475.289v-1.055c-0.527,0.718-1.392,1.23-2.388,1.23c-1.846,0-3.149-1.406-3.149-3.706
				c0-2.256,1.289-3.721,3.149-3.721c0.952,0,1.817,0.469,2.388,1.245v-3.765h1.098v9.77H233.35z M233.35,473.37v-3.208
				c-0.396-0.615-1.245-1.143-2.124-1.143c-1.421,0-2.27,1.172-2.27,2.739c0,1.567,0.849,2.724,2.27,2.724
				C232.105,474.483,232.954,473.986,233.35,473.37z"/>
			<path style="fill:#1D262D;" d="M239.692,475.289v-9.77h1.098v3.765c0.572-0.776,1.421-1.245,2.388-1.245
				c1.845,0,3.149,1.465,3.149,3.721c0,2.299-1.304,3.706-3.149,3.706c-0.996,0-1.86-0.513-2.388-1.23v1.055H239.692z
				 M242.9,474.483c1.436,0,2.285-1.157,2.285-2.724c0-1.568-0.85-2.739-2.285-2.739c-0.864,0-1.728,0.527-2.109,1.143v3.208
				C241.171,473.986,242.036,474.483,242.9,474.483z"/>
			<path style="fill:#1D262D;" d="M247.528,477.061c0.161,0.073,0.425,0.117,0.601,0.117c0.483,0,0.805-0.161,1.055-0.747
				l0.469-1.069l-2.959-7.148h1.187l2.358,5.8l2.344-5.8h1.201l-3.545,8.51c-0.425,1.025-1.143,1.421-2.08,1.435
				c-0.234,0-0.601-0.044-0.805-0.103L247.528,477.061z"/>
		</g>
	</g>
</g>
</svg>
