<?xml version="1.0" encoding="utf-8"?>
<!-- Generator: Adobe Illustrator 27.5.0, SVG Export Plug-In . SVG Version: 6.00 Build 0)  -->
<svg version="1.1" xmlns="http://www.w3.org/2000/svg" xmlns:xlink="http://www.w3.org/1999/xlink" x="0px" y="0px"
	 viewBox="0 0 500 500" style="enable-background:new 0 0 500 500;" xml:space="preserve">
<g id="BACKGROUND">
	<rect style="fill:#FFFFFF;" width="500" height="500"/>
</g>
<g id="OBJECTS">
	<g>
		<polyline style="fill:#E2E2E2;" points="225.555,218.658 225.555,190.72 114.822,190.72 94.372,236.374 105.381,241.249 
			114.013,232.44 125.403,237.485 134.027,228.678 145.416,233.723 154.05,224.914 165.443,229.958 174.077,221.149 
			185.472,226.193 194.104,217.384 205.503,222.427 214.149,213.615 225.555,218.658 		"/>
		<path style="fill:#F7C418;" d="M74.268,190.72c-2.619,0-4.743,2.124-4.743,4.743v0.658c0,2.576,2.055,4.68,4.63,4.742v28.884
			c-2.557,0-4.63,2.073-4.63,4.63v0.661c0,2.557,2.073,4.63,4.63,4.63h18.741l21.926-48.948H74.268z M91.059,225.924
			c0,2.232-1.81,4.042-4.042,4.042c-2.232,0-4.042-1.81-4.042-4.042v-22.49c0-2.232,1.81-4.042,4.042-4.042
			c2.232,0,4.042,1.81,4.042,4.042V225.924z"/>
		<path style="fill:#D8A413;" d="M75.125,235.125c-2.125-1.5-0.97-5.379-0.97-5.379c-2.557,0-4.63,2.073-4.63,4.63v0.661
			c0,2.557,2.073,4.63,4.63,4.63h18.741l1.972-4.402C89.818,235.6,76.832,236.33,75.125,235.125z"/>
		<polygon style="fill:#F7F7F7;" points="150.192,190.72 132.483,230.255 134.027,228.678 135.122,229.163 152,190.72 		"/>
		<polygon style="fill:#F7F7F7;" points="155.167,190.72 137.984,230.431 142.634,232.491 160.833,190.72 		"/>
	</g>
	<g>
		<rect x="316.673" y="91.282" style="fill:#B78558;" width="9.84" height="48.277"/>
		<path style="fill:#303E47;" d="M327.033,139.559h-9.956c-1.751,0-3.171,1.42-3.171,3.171v30.251c0,1.751,1.42,3.171,3.171,3.171
			h9.956c1.751,0,3.171-1.42,3.171-3.171V142.73C330.203,140.979,328.784,139.559,327.033,139.559z"/>
		<path style="fill:#B3B2B2;" d="M316.673,91.282c0,0-0.615-6.611-10.916-6.457c-3.161-0.002-5.419,0.995-6.803,1.881
			c-0.998,0.639-2.315,0.42-3.004-0.545l-0.006-0.008c-0.581-0.814-0.541-1.911,0.101-2.678c3.195-3.818,13.351-13.959,26.009-6.491
			v-1.537h5.842v3.075h3.536v-3.382h4.459v16.759h-3.844v-4.612c0,0-4.613-1.076-5.535,3.997H316.673z"/>
		<rect x="316.673" y="91.282" style="fill:#936B4A;" width="3.274" height="48.277"/>
		<path style="fill:#1E282D;" d="M317.505,172.981V142.73c0-1.751,1.42-3.171,3.171-3.171h-3.599c-1.751,0-3.171,1.42-3.171,3.171
			v30.251c0,1.751,1.42,3.171,3.171,3.171h3.599C318.924,176.152,317.505,174.732,317.505,172.981z"/>
		<path style="fill:#8E8E8E;" d="M310.917,82c-7.917-2.167-14.871,1.474-14.871,1.474c-0.642,0.767-0.682,1.864-0.101,2.678
			l0.006,0.008c0.689,0.965,2.006,1.184,3.004,0.545c1.384-0.886,3.642-1.882,6.803-1.881c10.301-0.154,10.916,6.457,10.916,6.457
			h3.274C319.947,91.282,318.833,84.167,310.917,82z"/>
	</g>
	<g>
		<path style="fill:#F7C418;" d="M321.593,280.334L321.593,280.334c-2.604,0-4.715-2.111-4.715-4.715v-27.06h9.43v27.06
			C326.308,278.223,324.197,280.334,321.593,280.334z"/>
		<path style="fill:#F7C418;" d="M326.428,248.559h-9.67c-2.042,0-3.698-1.656-3.698-3.698v-1.214c0-2.042,1.656-3.698,3.698-3.698
			h9.67c2.042,0,3.698,1.656,3.698,3.698v1.214C330.126,246.904,328.471,248.559,326.428,248.559z"/>
		<rect x="319.947" y="198.898" style="fill:#B3B2B2;" width="3.293" height="41.051"/>
		<polygon style="fill:#B3B2B2;" points="317.533,198.898 325.653,198.898 322.983,191.729 320.203,191.729 		"/>
		<path style="fill:#D8A413;" d="M319.947,275.619v-27.06h-3.069v27.06c0,2.604,2.111,4.715,4.715,4.715
			c0.54,0,1.051-0.11,1.534-0.277C321.281,279.418,319.947,277.683,319.947,275.619z"/>
		<path style="fill:#D8A413;" d="M316.31,244.861v-1.214c0-2.042,1.656-3.698,3.698-3.698h-3.25c-2.043,0-3.698,1.656-3.698,3.698
			v1.214c0,2.042,1.656,3.698,3.698,3.698h3.25C317.966,248.559,316.31,246.904,316.31,244.861z"/>
		<rect x="319.947" y="198.898" style="fill:#8E8E8E;" width="1.178" height="41.051"/>
		<polygon style="fill:#8E8E8E;" points="321.125,198.898 317.533,198.898 320.203,191.729 320.917,191.729 		"/>
	</g>
	<g>
		<path style="fill:#F7C418;" d="M421.086,283.048L421.086,283.048c-2.604,0-4.715-2.111-4.715-4.715l2.46-27.06h4.51l2.46,27.06
			C425.801,280.937,423.69,283.048,421.086,283.048z"/>
		<path style="fill:#F7C418;" d="M426.537,251.273h-10.902c-1.702,0-3.082-1.38-3.082-3.082l0,0c0-1.702,1.38-3.082,3.082-3.082
			h10.902c1.702,0,3.082,1.38,3.082,3.082l0,0C429.619,249.893,428.239,251.273,426.537,251.273z"/>
		<g>
			<polygon style="fill:#B3B2B2;" points="421.701,245.109 420.471,245.109 420.471,230.56 388.978,216.722 388.978,202.483 
				396.511,202.483 396.511,203.713 390.208,203.713 390.208,215.919 421.701,229.756 			"/>
		</g>
		<path style="fill:#FFA023;" d="M444.372,211.016h-44.675c-1.759,0-3.185-1.426-3.185-3.185v-9.466
			c0-1.759,1.426-3.185,3.185-3.185h44.675c1.759,0,3.185,1.426,3.185,3.185v9.466C447.557,209.59,446.131,211.016,444.372,211.016z
			"/>
		<path style="fill:#D8A413;" d="M418.204,278.333l2.46-27.06h-1.833l-2.46,27.06c0,2.604,2.111,4.715,4.715,4.715
			c0.314,0,0.62-0.034,0.917-0.092C419.838,282.528,418.204,280.623,418.204,278.333z"/>
		<path style="fill:#D8A413;" d="M419.101,248.191c0-1.702,1.38-3.082,3.082-3.082h-6.548c-1.702,0-3.082,1.38-3.082,3.082
			c0,1.702,1.38,3.082,3.082,3.082h6.548C420.481,251.273,419.101,249.893,419.101,248.191z"/>
		<path style="fill:#D68522;" d="M399.697,195.18c-1.759,0-3.185,1.426-3.185,3.185v9.466c0,1.759,1.426,3.185,3.185,3.185h21.389
			C397.005,209.032,399.697,195.18,399.697,195.18z"/>
	</g>
	<g>
		<path style="fill:#B3B2B2;" d="M434.4,101.396c0-6.871-4.47-12.689-10.657-14.73v17.721h-9.722V86.667
			c-6.187,2.041-10.657,7.859-10.657,14.73c0,7.043,4.696,12.981,11.124,14.877v52.709c0,2.426,1.967,4.394,4.393,4.394h0
			c2.427,0,4.393-1.967,4.393-4.394v-52.709C429.704,114.377,434.4,108.439,434.4,101.396z"/>
		<g>
			<path style="fill:#6D6D6D;" d="M418.882,166.038c-0.31,0-0.561-0.251-0.561-0.561v-50.059c0-0.31,0.251-0.561,0.561-0.561
				c0.31,0,0.561,0.251,0.561,0.561v50.059C419.443,165.787,419.192,166.038,418.882,166.038z"/>
		</g>
		<g>
			<path style="fill:#8E8E8E;" d="M425.868,87.553c-0.682-0.344-1.39-0.644-2.125-0.886v17.721h2.125V87.553z"/>
			<path style="fill:#8E8E8E;" d="M416.614,168.982v-52.709c-6.428-1.896-11.124-7.834-11.124-14.877
				c0-6.055,3.473-11.288,8.532-13.844v-0.886c-6.187,2.041-10.657,7.859-10.657,14.73c0,7.043,4.696,12.981,11.124,14.877v52.709
				c0,2.426,1.967,4.394,4.393,4.394h0c0.368,0,0.72-0.059,1.063-0.144C418.035,172.755,416.614,171.04,416.614,168.982z"/>
		</g>
	</g>
	<g>
		<g>
			<polygon style="fill:#B3B2B2;" points="237.189,349.671 222.864,349.671 222.864,345.718 234.833,345.718 256.577,305.576 
				268.956,305.576 268.956,309.529 258.932,309.529 			"/>
		</g>
		<g>
			<path style="fill:#B3B2B2;" d="M202.379,418.996c-0.41,0-0.825-0.043-1.242-0.131c-13.801-2.897-46.403-57.997-49.938-64.026
				l4.609,0.143c13.529,23.07,36.982,58.092,46.141,60.015c0.44,0.093,1.051,0.116,1.853-0.535
				c7.471-6.065,9.106-44.271,9.106-58.48h3.953c0,5.422-0.296,53.208-10.568,61.549C205.1,418.5,203.765,418.996,202.379,418.996z"
				/>
		</g>
		<path style="fill:#F7C418;" d="M63.916,287.786l25.23,62.173c1.477,3.641,5.015,6.023,8.944,6.023h116.579
			c4.803,0,8.876-3.532,9.555-8.287l3.264-22.846L63.916,287.786z"/>
		<polygon style="fill:#B3B2B2;" points="93.566,367.347 99.002,355.981 103.203,355.981 98.384,367.347 		"/>
		
			<ellipse transform="matrix(0.9266 -0.3761 0.3761 0.9266 -140.5569 62.2046)" style="fill:#303E47;" cx="89.058" cy="391.137" rx="25.792" ry="25.792"/>
		
			<ellipse transform="matrix(0.1615 -0.9869 0.9869 0.1615 -311.3261 415.8772)" style="fill:#11181D;" cx="89.058" cy="391.137" rx="11.876" ry="11.876"/>
		<path style="fill:#303E47;" d="M290.118,311.012h-21.198c-1.379,0-2.496-1.118-2.496-2.496v-2.75c0-1.379,1.118-2.496,2.496-2.496
			h21.198c1.379,0,2.496,1.118,2.496,2.496v2.75C292.614,309.894,291.497,311.012,290.118,311.012z"/>
		<path style="fill:#D8A413;" d="M126.333,349.671c-22.193-4.612-48.847-50.285-54.32-60.051l-8.097-1.835l25.23,62.173
			c1.477,3.641,5.014,6.023,8.944,6.023h65.146C152.122,354.363,138.308,352.16,126.333,349.671z"/>
		<g>
			<path style="fill:#B78558;" d="M214.234,321.846c-1.464-3.377-3.657-7.326-6.844-11.987
				c-22.073-32.286-36.569-33.933-49.088-32.945c-12.519,0.988-15.484,4.283-25.697,7.467c-10.213,3.184-15.813-7.467-29.403-7.467
				s-21.356,14.934-21.356,14.934l0,0L214.234,321.846z"/>
			<path style="fill:#936B4A;" d="M102.333,281.417c0,0.322-0.709,0.583-1.583,0.583s-1.583-0.261-1.583-0.583
				c0-0.322,0.709-0.583,1.583-0.583S102.333,281.095,102.333,281.417z"/>
			<ellipse style="fill:#936B4A;" cx="110" cy="283.25" rx="1" ry="0.417"/>
			<path style="fill:#936B4A;" d="M108.195,287.257c-0.055,0.397-0.737,0.631-1.524,0.522c-0.786-0.109-1.379-0.52-1.324-0.917
				c0.055-0.397,0.737-0.631,1.524-0.522S108.25,286.86,108.195,287.257z"/>
			<path style="fill:#936B4A;" d="M118.167,285.917c0,0.23-0.41,0.417-0.917,0.417c-0.506,0-0.917-0.187-0.917-0.417
				c0-0.23,0.41-0.417,0.917-0.417C117.756,285.5,118.167,285.686,118.167,285.917z"/>
			<path style="fill:#936B4A;" d="M153,285.208c0,0.391-0.858,0.708-1.917,0.708c-1.059,0-1.917-0.317-1.917-0.708
				c0-0.391,0.858-0.708,1.917-0.708C152.142,284.5,153,284.817,153,285.208z"/>
			<path style="fill:#936B4A;" d="M164.5,283.875c0,0.345-0.522,0.625-1.167,0.625c-0.644,0-1.167-0.28-1.167-0.625
				s0.522-0.625,1.167-0.625C163.978,283.25,164.5,283.53,164.5,283.875z"/>
			<ellipse style="fill:#936B4A;" cx="160.75" cy="288.06" rx="1.417" ry="0.274"/>
			<path style="fill:#936B4A;" d="M105.125,296.375c-8.867-4.868-10.357-12.936-10.443-17.402
				c-8.262,4.094-12.836,12.875-12.836,12.875l25.59,5.799C106.695,297.238,105.925,296.814,105.125,296.375z"/>
		</g>
	</g>
	<g>
		<path style="fill:#E2E2E2;" d="M196.386,149.322V71.684l49.221-0.254l29.912,27.75c6.58,6.105,6.564,16.522-0.037,22.605
			l-29.876,27.536H196.386z"/>
		<path style="fill:#CECECE;" d="M196.386,110.376v38.946h49.221l29.876-27.536c3.331-3.07,4.98-7.244,4.956-11.41H196.386z"/>
		
			<rect x="74.094" y="105.492" transform="matrix(-1 -1.224647e-16 1.224647e-16 -1 270.4801 220.7515)" style="fill:#B78558;" width="122.292" height="9.768"/>
		<path style="fill:#B3B2B2;" d="M196.386,105.492h27.846c2.697,0,4.884,2.187,4.884,4.884l0,0c0,2.697-2.187,4.884-4.884,4.884
			h-27.846V105.492z"/>
		<path style="fill:#F7C418;" d="M56.041,127.407h14.456c1.987,0,3.597-1.611,3.597-3.597V97.513c0-1.987-1.611-3.597-3.597-3.597
			H56.041c-1.987,0-3.597,1.611-3.597,3.597v26.296C52.443,125.796,54.054,127.407,56.041,127.407z M56.689,102.669
			c0-1.208,0.979-2.187,2.187-2.187h8.787c1.208,0,2.187,0.979,2.187,2.187v15.984c0,1.208-0.979,2.187-2.187,2.187h-8.787
			c-1.208,0-2.187-0.979-2.187-2.187V102.669z"/>
		<rect x="74.094" y="110.661" style="fill:#936B4A;" width="122.292" height="4.598"/>
		<g>
			<path style="fill:#D8A413;" d="M67.662,97.483h-8.787c-1.208,0-2.187,0.979-2.187,2.187v3c0-1.208,0.979-2.187,2.187-2.187h8.787
				c1.208,0,2.187,0.979,2.187,2.187v-3C69.849,98.462,68.87,97.483,67.662,97.483z"/>
			<path style="fill:#D8A413;" d="M70.497,124.407H56.041c-1.987,0-3.597-1.611-3.597-3.597v3c0,1.987,1.611,3.597,3.597,3.597
				h14.456c1.987,0,3.597-1.611,3.597-3.597v-3C74.094,122.796,72.483,124.407,70.497,124.407z"/>
		</g>
	</g>
	<g>
		<path style="fill:#AA3000;" d="M324.65,396.055l-4.399,19.478c-1.559,5.625,2.672,11.189,8.509,11.189
			c5.33,0,9.445-4.687,8.756-9.972l-2.699-20.695l9.167-11.833h-29.667L324.65,396.055z M330.772,419.159
			c0,1.358-1.101,2.458-2.458,2.458s-2.458-1.101-2.458-2.458s1.101-2.458,2.458-2.458S330.772,417.802,330.772,419.159z"/>
		
			<rect x="324.15" y="364.388" transform="matrix(6.123234e-17 -1 1 6.123234e-17 -50.0714 708.3716)" style="fill:#D1D1D1;" width="10" height="29.667"/>
		<path style="fill:#B78558;" d="M314.317,374.221v-20.712c0-1.609,1.304-2.913,2.913-2.913h23.841c1.609,0,2.913,1.304,2.913,2.913
			v20.712H314.317z"/>
		<g>
			<path style="fill:#936B4A;" d="M320.4,357.971c0.393,2.708,0.484,5.417,0.5,8.125c-0.014,2.708-0.104,5.417-0.5,8.125
				c-0.396-2.708-0.486-5.417-0.5-8.125C319.917,363.388,320.007,360.68,320.4,357.971z"/>
		</g>
		<path style="fill:#A0714A;" d="M338.336,353.509v20.712h5.647v-20.712c0-1.609-1.304-2.913-2.913-2.913h-5.647
			C337.032,350.596,338.336,351.901,338.336,353.509z"/>
		<g>
			<path style="fill:#936B4A;" d="M329.15,374.221c-0.394-1.063-0.483-2.125-0.5-3.188c0.015-1.063,0.103-2.125,0.5-3.188
				c0.397,1.063,0.485,2.125,0.5,3.188C329.633,372.096,329.544,373.159,329.15,374.221z"/>
		</g>
		<g>
			<path style="fill:#936B4A;" d="M338.775,374.221c-0.394-1.969-0.483-3.938-0.5-5.906c0.015-1.969,0.103-3.938,0.5-5.906
				c0.397,1.969,0.485,3.938,0.5,5.906C339.258,370.284,339.169,372.253,338.775,374.221z"/>
		</g>
		<g>
			<path style="fill:#7C280A;" d="M326.674,426.475l-0.027-0.006C326.656,426.471,326.665,426.473,326.674,426.475z"/>
			<path style="fill:#7C280A;" d="M332.483,413.388c1.324,10.424-5.548,13.078-5.648,13.116c0.618,0.137,1.259,0.217,1.925,0.217
				c5.33,0,9.445-4.687,8.756-9.972l-2.699-20.695l9.167-11.833h-5.208l-8.003,11C330.772,395.221,331.15,402.888,332.483,413.388z"
				/>
		</g>
		
			<rect x="336.16" y="376.398" transform="matrix(6.123234e-17 -1 1 6.123234e-17 -38.0616 720.3815)" style="fill:#BFBFBF;" width="10" height="5.647"/>
	</g>
	<g>
		<path style="fill:none;stroke:#898989;stroke-miterlimit:10;" d="M444.411,365.823h-69.71c-6.6,0-12-5.4-12-12v-9.878
			c0-18.95,15.505-34.455,34.455-34.455h24.8c18.95,0,34.455,15.505,34.455,34.455v9.878
			C456.411,360.423,451.011,365.823,444.411,365.823z"/>
		<path style="fill:#D1D1D1;" d="M436.763,428.323h-52.87c-3.58,0-6.482-2.902-6.482-6.482V362.49h65.833v59.352
			C443.244,425.421,440.342,428.323,436.763,428.323z"/>
		<path style="fill:#BFBFBF;" d="M389.102,421.841V362.49h-11.691v59.352c0,3.58,2.902,6.482,6.482,6.482h11.691
			C392.004,428.323,389.102,425.421,389.102,421.841z"/>
		<path style="fill:#85BAAB;" d="M444.899,362.49h-70.31c-1.571,0-2.845-1.274-2.845-2.845v-1.643c0-1.571,1.274-2.845,2.845-2.845
			h70.31c1.571,0,2.845,1.274,2.845,2.845v1.643C447.744,361.216,446.471,362.49,444.899,362.49z"/>
		<path style="fill:#B76B18;" d="M424.829,312.476h-28.977c-1.709,0-3.107-1.398-3.107-3.107l0,0c0-1.709,1.398-3.107,3.107-3.107
			h28.977c1.709,0,3.107,1.398,3.107,3.107l0,0C427.936,311.078,426.538,312.476,424.829,312.476z"/>
		<path style="fill:#AA3000;" d="M444.899,355.156h-70.31c-1.571,0-2.845,1.274-2.845,2.845v1.643c0,1.571,1.274,2.845,2.845,2.845
			h5.974c1.077,0.005,8.117,0.205,9.348,4.667c1.333,4.833,0,19,2.833,21.167c2.833,2.167,6.5,0.333,6.667-5.333
			c0.167-5.667-0.333-13.833,3.167-17.167c3.5-3.333,8.167-2.667,9.167,2.167c1,4.833-1.667,11.667,2.833,13.333
			c4.5,1.667,5-4.5,5.167-7.167c0.167-2.667,1.167-7.667,4.833-7.167s5.333,1.833,5.5,11.833s-0.333,17.333,5,17.5
			c5.333,0.167,3.833-14,4-20.5s1.833-13.333,1.833-13.333h3.988c1.571,0,2.845-1.274,2.845-2.845v-1.643
			C447.744,356.43,446.471,355.156,444.899,355.156z"/>
		<g>
			<path style="fill:#7C280A;" d="M416.244,379.656c-4.5-1.667-1.833-8.5-2.833-13.333c-1-4.833-5.667-5.5-9.167-2.167
				c-0.291,0.277-0.545,0.598-0.783,0.938c3.359-2.457,7.365-1.541,8.283,2.896c1,4.833-1.667,11.667,2.833,13.333
				c2.068,0.766,3.285-0.129,4.019-1.572C417.967,379.996,417.2,380.01,416.244,379.656z"/>
			<path style="fill:#7C280A;" d="M394.411,386.656c-2.833-2.167-1.5-16.333-2.833-21.167c-1.231-4.462-8.271-4.662-9.348-4.667
				h-5.974c-1.571,0-2.845-1.274-2.845-2.845v-1.643c0-0.35,0.072-0.681,0.187-0.991c-1.081,0.403-1.854,1.436-1.854,2.658v1.643
				c0,1.571,1.274,2.845,2.845,2.845h5.974c1.077,0.005,8.117,0.205,9.348,4.667c1.333,4.833,0,19,2.833,21.167
				c1.957,1.497,4.311,1.082,5.635-1.184C397.155,387.79,395.698,387.641,394.411,386.656z"/>
			<path style="fill:#7C280A;" d="M436.744,394.656c-5.333-0.167-4.833-7.5-5-17.5c-0.167-10-1.833-11.333-5.5-11.833
				c-1.637-0.223-2.739,0.652-3.476,1.924c0.516-0.247,1.114-0.352,1.81-0.257c3.667,0.5,5.333,1.833,5.5,11.833
				s-0.333,17.333,5,17.5c1.204,0.038,2.058-0.66,2.663-1.831C437.438,394.607,437.108,394.668,436.744,394.656z"/>
			<path style="fill:#7C280A;" d="M446.566,360.823h-3.988c0,0-0.152,0.626-0.367,1.667h2.689c1.221,0,2.254-0.773,2.658-1.854
				C447.247,360.751,446.916,360.823,446.566,360.823z"/>
		</g>
	</g>
</g>
<g id="DESIGNED_BY_FREEPIK">
	<g>
		<g id="XMLID_319_">
			<g id="XMLID_338_">
				<path id="XMLID_346_" style="fill:#1D262D;" d="M260.104,465.465c-0.432,0.443-0.803,0.931-1.108,1.453l-0.465-0.241
					c-0.067-0.298-0.349-0.503-0.659-0.466c-0.331,0.039-0.568,0.339-0.529,0.67s0.339,0.568,0.67,0.529
					c0.065-0.008,0.127-0.026,0.184-0.052l0.451,0.234c-0.251,0.554-0.433,1.139-0.539,1.744l0.746,0.132
					c0.23-1.306,0.85-2.507,1.792-3.473L260.104,465.465z"/>
				<path id="XMLID_345_" style="fill:#1D262D;" d="M265.592,463.163c-0.171,0-0.341,0.006-0.51,0.017l-0.074-0.626
					c0.188-0.149,0.296-0.389,0.266-0.645c-0.046-0.393-0.402-0.674-0.795-0.628s-0.674,0.402-0.628,0.795
					c0.03,0.254,0.189,0.461,0.405,0.564l0.073,0.624c-0.714,0.116-1.403,0.332-2.06,0.646l0.327,0.684
					c0.934-0.447,1.942-0.673,2.995-0.673c0.496,0,0.993,0.053,1.475,0.158l0.161-0.741
					C266.693,463.222,266.142,463.163,265.592,463.163z"/>
				<path id="XMLID_344_" style="fill:#1D262D;" d="M272.194,465.711c0.331-0.04,0.566-0.341,0.525-0.672
					c-0.04-0.331-0.341-0.566-0.672-0.526c-0.309,0.038-0.535,0.304-0.53,0.609l-0.416,0.363c-0.418-0.43-0.89-0.813-1.408-1.139
					l-0.404,0.641c1.134,0.715,2.021,1.726,2.563,2.925l0.691-0.313c-0.251-0.554-0.568-1.072-0.942-1.545l0.402-0.351
					C272.065,465.716,272.129,465.719,272.194,465.711z"/>
				<path id="XMLID_343_" style="fill:#1D262D;" d="M265.044,473.372c-0.386,0.023-0.775,0.035-1.157,0.035
					c-0.88,0-1.733-0.061-2.478-0.179c-0.39-0.062-0.846-0.155-1.27-0.292c1.046,1.861,3.069,3.125,5.388,3.125
					c2.855,0,5.262-1.916,5.95-4.504c-0.682,0.449-1.505,0.825-2.459,1.123C267.839,473.047,266.464,473.286,265.044,473.372z"/>
				<path id="XMLID_339_" style="fill:#1D262D;" d="M265.592,464.68c-3.352,0-6.08,2.666-6.08,5.943
					c0,0.426,0.046,0.849,0.137,1.261c0.674,0.483,2.706,0.89,5.348,0.731c2.879-0.173,5.297-0.957,6.672-2.159
					c-0.005-0.195-0.021-0.39-0.045-0.582C271.244,466.913,268.65,464.68,265.592,464.68z M263.432,471.194
					c-1.02,0-1.85-0.83-1.85-1.85c0-1.02,0.83-1.85,1.85-1.85c1.02,0,1.85,0.83,1.85,1.85
					C265.282,470.365,264.452,471.194,263.432,471.194z M268.17,470.286c-0.75,0-1.36-0.61-1.36-1.36s0.61-1.361,1.36-1.361
					c0.75,0,1.361,0.61,1.361,1.361S268.92,470.286,268.17,470.286z"/>
			</g>
			<path id="XMLID_336_" style="fill:#1D262D;" d="M281.595,466.547c-0.295-0.116-0.806-0.309-1.382-0.237
				c-0.551,0.069-0.844,0.341-0.844,1.007v0.866h2.228v1.717h-2.228v5.455h-1.932v-5.455h-1.34v-1.717h1.34v-0.888
				c0-1.68,0.896-2.783,2.568-2.783c0.642,0,1.157,0.122,1.59,0.308L281.595,466.547z"/>
			<path id="XMLID_334_" style="fill:#1D262D;" d="M286.298,469.879c-0.177-0.03-0.358-0.046-0.526-0.046
				c-0.896,0-1.51,0.548-1.51,1.614v3.908h-1.932v-7.172h1.873v0.785c0.451-0.673,1.14-0.977,2.021-0.977
				c0.414,0,0.848,0.128,1.094,0.337L286.298,469.879z"/>
			<path id="XMLID_331_" style="fill:#1D262D;" d="M293.965,471.757c0,0.222-0.015,0.489-0.037,0.651h-5.085
				c0.207,1.036,0.933,1.488,1.843,1.488c0.622,0,1.295-0.252,1.813-0.688l1.132,1.243c-0.814,0.748-1.85,1.088-3.057,1.088
				c-2.198,0-3.723-1.495-3.723-3.753c0-2.258,1.48-3.797,3.627-3.797C292.544,467.99,293.958,469.522,293.965,471.757z
				 M288.851,471.091h3.175c-0.177-0.918-0.733-1.436-1.562-1.436C289.554,469.655,289.021,470.203,288.851,471.091z"/>
			<path id="XMLID_328_" style="fill:#1D262D;" d="M301.618,471.757c0,0.222-0.015,0.489-0.037,0.651h-5.085
				c0.207,1.036,0.932,1.488,1.843,1.488c0.622,0,1.295-0.252,1.813-0.688l1.132,1.243c-0.814,0.748-1.85,1.088-3.057,1.088
				c-2.198,0-3.723-1.495-3.723-3.753c0-2.258,1.48-3.797,3.627-3.797C300.197,467.99,301.611,469.522,301.618,471.757z
				 M296.504,471.091h3.175c-0.178-0.918-0.733-1.436-1.562-1.436C297.207,469.655,296.674,470.203,296.504,471.091z"/>
			<path id="XMLID_325_" style="fill:#1D262D;" d="M309.964,471.764c0,2.154-1.495,3.775-3.471,3.775
				c-0.962,0-1.643-0.378-2.109-0.933v3.708h-1.924v-10.133h1.887v0.792c0.466-0.585,1.155-0.984,2.139-0.984
				C308.469,467.99,309.964,469.61,309.964,471.764z M304.287,471.764c0,1.132,0.747,1.976,1.843,1.976
				c1.14,0,1.85-0.881,1.85-1.976c0-1.095-0.71-1.976-1.85-1.976C305.035,469.788,304.287,470.632,304.287,471.764z"/>
			<path id="XMLID_322_" style="fill:#1D262D;" d="M313.068,465.836c0,0.696-0.54,1.229-1.236,1.229
				c-0.696,0-1.229-0.533-1.229-1.229c0-0.696,0.533-1.243,1.229-1.243C312.527,464.592,313.068,465.14,313.068,465.836z
				 M312.809,475.354h-1.932v-7.172h1.932V475.354z"/>
			<path id="XMLID_320_" style="fill:#1D262D;" d="M316.032,470.736l2.702-2.554h2.368l-3.479,3.375l3.501,3.797h-2.376
				l-2.716-2.901v2.901H314.1v-10.658h1.932V470.736z"/>
		</g>
		<g>
			<path style="fill:#1D262D;" d="M184.412,475.289v-1.055c-0.527,0.718-1.391,1.23-2.387,1.23c-1.846,0-3.149-1.406-3.149-3.706
				c0-2.256,1.289-3.721,3.149-3.721c0.952,0,1.816,0.469,2.387,1.245v-3.765h1.099v9.77H184.412z M184.412,473.37v-3.208
				c-0.395-0.615-1.245-1.143-2.124-1.143c-1.421,0-2.27,1.172-2.27,2.739c0,1.567,0.85,2.724,2.27,2.724
				C183.168,474.483,184.017,473.986,184.412,473.37z"/>
			<path style="fill:#1D262D;" d="M186.932,471.744c0-2.051,1.465-3.706,3.486-3.706c2.139,0,3.398,1.67,3.398,3.794v0.279h-5.727
				c0.088,1.333,1.025,2.446,2.549,2.446c0.805,0,1.626-0.322,2.182-0.894l0.527,0.718c-0.703,0.703-1.655,1.084-2.812,1.084
				C188.44,475.465,186.932,473.956,186.932,471.744z M190.403,468.947c-1.509,0-2.256,1.274-2.314,2.358h4.643
				C192.718,470.25,192.015,468.947,190.403,468.947z"/>
			<path style="fill:#1D262D;" d="M194.607,474.351l0.571-0.791c0.469,0.542,1.362,1.011,2.329,1.011c1.084,0,1.67-0.513,1.67-1.216
				c0-1.714-4.38-0.659-4.38-3.281c0-1.098,0.952-2.036,2.636-2.036c1.201,0,2.051,0.454,2.622,1.026l-0.513,0.762
				c-0.424-0.513-1.201-0.894-2.109-0.894c-0.967,0-1.567,0.483-1.567,1.113c0,1.552,4.38,0.527,4.38,3.281
				c0,1.187-0.952,2.138-2.783,2.138C196.306,475.465,195.325,475.113,194.607,474.351z"/>
			<path style="fill:#1D262D;" d="M201.477,466.471c0-0.41,0.337-0.747,0.732-0.747c0.41,0,0.747,0.337,0.747,0.747
				c0,0.41-0.337,0.732-0.747,0.732C201.814,467.203,201.477,466.881,201.477,466.471z M201.667,475.289v-7.075h1.099v7.075H201.667
				z"/>
			<path style="fill:#1D262D;" d="M204.582,477.105l0.556-0.82c0.586,0.703,1.289,0.967,2.3,0.967c1.172,0,2.27-0.571,2.27-2.124
				v-1.011c-0.513,0.718-1.377,1.26-2.373,1.26c-1.845,0-3.149-1.377-3.149-3.662c0-2.27,1.289-3.677,3.149-3.677
				c0.952,0,1.802,0.469,2.373,1.245v-1.069h1.098v6.87c0,2.344-1.641,3.076-3.369,3.076
				C206.237,478.16,205.417,477.926,204.582,477.105z M209.709,473.253v-3.091c-0.381-0.615-1.23-1.143-2.109-1.143
				c-1.421,0-2.27,1.128-2.27,2.695c0,1.553,0.849,2.695,2.27,2.695C208.478,474.41,209.328,473.868,209.709,473.253z"/>
			<path style="fill:#1D262D;" d="M217.413,475.289v-4.629c0-1.245-0.63-1.641-1.582-1.641c-0.865,0-1.685,0.527-2.095,1.099v5.17
				h-1.099v-7.075h1.099v1.025c0.498-0.586,1.464-1.201,2.519-1.201c1.48,0,2.256,0.747,2.256,2.285v4.966H217.413z"/>
			<path style="fill:#1D262D;" d="M219.932,471.744c0-2.051,1.465-3.706,3.486-3.706c2.139,0,3.398,1.67,3.398,3.794v0.279h-5.727
				c0.088,1.333,1.025,2.446,2.549,2.446c0.806,0,1.626-0.322,2.183-0.894l0.527,0.718c-0.703,0.703-1.655,1.084-2.812,1.084
				C221.441,475.465,219.932,473.956,219.932,471.744z M223.404,468.947c-1.509,0-2.256,1.274-2.314,2.358h4.643
				C225.718,470.25,225.015,468.947,223.404,468.947z"/>
			<path style="fill:#1D262D;" d="M233.35,475.289v-1.055c-0.527,0.718-1.392,1.23-2.388,1.23c-1.846,0-3.149-1.406-3.149-3.706
				c0-2.256,1.289-3.721,3.149-3.721c0.952,0,1.817,0.469,2.388,1.245v-3.765h1.098v9.77H233.35z M233.35,473.37v-3.208
				c-0.396-0.615-1.245-1.143-2.124-1.143c-1.421,0-2.27,1.172-2.27,2.739c0,1.567,0.849,2.724,2.27,2.724
				C232.105,474.483,232.954,473.986,233.35,473.37z"/>
			<path style="fill:#1D262D;" d="M239.692,475.289v-9.77h1.098v3.765c0.572-0.776,1.421-1.245,2.388-1.245
				c1.845,0,3.149,1.465,3.149,3.721c0,2.299-1.304,3.706-3.149,3.706c-0.996,0-1.86-0.513-2.388-1.23v1.055H239.692z
				 M242.9,474.483c1.436,0,2.285-1.157,2.285-2.724c0-1.568-0.85-2.739-2.285-2.739c-0.864,0-1.728,0.527-2.109,1.143v3.208
				C241.171,473.986,242.036,474.483,242.9,474.483z"/>
			<path style="fill:#1D262D;" d="M247.528,477.061c0.161,0.073,0.425,0.117,0.601,0.117c0.483,0,0.805-0.161,1.055-0.747
				l0.469-1.069l-2.959-7.148h1.187l2.358,5.8l2.344-5.8h1.201l-3.545,8.51c-0.425,1.025-1.143,1.421-2.08,1.435
				c-0.234,0-0.601-0.044-0.805-0.103L247.528,477.061z"/>
		</g>
	</g>
</g>
</svg>
